<?xml version="1.0" encoding="UTF-8"?>
<svg xmlns="http://www.w3.org/2000/svg" viewBox="0 0 106 106" width="1024" height="1024">
  <defs>
    <radialGradient id="bg" cx="39%" cy="16%" r="80%">
      <stop offset="0%" stop-color="#F5F5F2"/>
      <stop offset="35%" stop-color="#EBEBEA"/>
      <stop offset="100%" stop-color="#D9D9D6"/>
    </radialGradient>
  </defs>
  <rect width="106" height="106" fill="url(#bg)"/>
  <circle cx="53" cy="53" r="47.5" fill="#262628"/>
  <circle cx="53" cy="53" r="38.5" fill="url(#bg)"/>
  <g><polygon points="99.00,56.00 104.00,53.00 99.00,50.00" fill="#262628" stroke="#262628" stroke-width="3" stroke-linejoin="round"/>
<polygon points="97.53,64.92 103.02,62.95 98.70,59.03" fill="#262628" stroke="#262628" stroke-width="3" stroke-linejoin="round"/>
<polygon points="94.35,73.38 100.12,72.52 96.65,67.83" fill="#262628" stroke="#262628" stroke-width="3" stroke-linejoin="round"/>
<polygon points="89.58,81.05 95.40,81.33 92.91,76.06" fill="#262628" stroke="#262628" stroke-width="3" stroke-linejoin="round"/>
<polygon points="83.41,87.65 89.06,89.06 87.65,83.41" fill="#262628" stroke="#262628" stroke-width="3" stroke-linejoin="round"/>
<polygon points="76.06,92.91 81.33,95.40 81.05,89.58" fill="#262628" stroke="#262628" stroke-width="3" stroke-linejoin="round"/>
<polygon points="67.83,96.65 72.52,100.12 73.38,94.35" fill="#262628" stroke="#262628" stroke-width="3" stroke-linejoin="round"/>
<polygon points="59.03,98.70 62.95,103.02 64.92,97.53" fill="#262628" stroke="#262628" stroke-width="3" stroke-linejoin="round"/>
<polygon points="50.00,99.00 53.00,104.00 56.00,99.00" fill="#262628" stroke="#262628" stroke-width="3" stroke-linejoin="round"/>
<polygon points="41.08,97.53 43.05,103.02 46.97,98.70" fill="#262628" stroke="#262628" stroke-width="3" stroke-linejoin="round"/>
<polygon points="32.62,94.35 33.48,100.12 38.17,96.65" fill="#262628" stroke="#262628" stroke-width="3" stroke-linejoin="round"/>
<polygon points="24.95,89.58 24.67,95.40 29.94,92.91" fill="#262628" stroke="#262628" stroke-width="3" stroke-linejoin="round"/>
<polygon points="18.35,83.41 16.94,89.06 22.59,87.65" fill="#262628" stroke="#262628" stroke-width="3" stroke-linejoin="round"/>
<polygon points="13.09,76.06 10.60,81.33 16.42,81.05" fill="#262628" stroke="#262628" stroke-width="3" stroke-linejoin="round"/>
<polygon points="9.35,67.83 5.88,72.52 11.65,73.38" fill="#262628" stroke="#262628" stroke-width="3" stroke-linejoin="round"/>
<polygon points="7.30,59.03 2.98,62.95 8.47,64.92" fill="#262628" stroke="#262628" stroke-width="3" stroke-linejoin="round"/>
<polygon points="7.00,50.00 2.00,53.00 7.00,56.00" fill="#262628" stroke="#262628" stroke-width="3" stroke-linejoin="round"/>
<polygon points="8.47,41.08 2.98,43.05 7.30,46.97" fill="#262628" stroke="#262628" stroke-width="3" stroke-linejoin="round"/>
<polygon points="11.65,32.62 5.88,33.48 9.35,38.17" fill="#262628" stroke="#262628" stroke-width="3" stroke-linejoin="round"/>
<polygon points="16.42,24.95 10.60,24.67 13.09,29.94" fill="#262628" stroke="#262628" stroke-width="3" stroke-linejoin="round"/>
<polygon points="22.59,18.35 16.94,16.94 18.35,22.59" fill="#262628" stroke="#262628" stroke-width="3" stroke-linejoin="round"/>
<polygon points="29.94,13.09 24.67,10.60 24.95,16.42" fill="#262628" stroke="#262628" stroke-width="3" stroke-linejoin="round"/>
<polygon points="38.17,9.35 33.48,5.88 32.62,11.65" fill="#262628" stroke="#262628" stroke-width="3" stroke-linejoin="round"/>
<polygon points="46.97,7.30 43.05,2.98 41.08,8.47" fill="#262628" stroke="#262628" stroke-width="3" stroke-linejoin="round"/>
<polygon points="56.00,7.00 53.00,2.00 50.00,7.00" fill="#262628" stroke="#262628" stroke-width="3" stroke-linejoin="round"/>
<polygon points="64.92,8.47 62.95,2.98 59.03,7.30" fill="#262628" stroke="#262628" stroke-width="3" stroke-linejoin="round"/>
<polygon points="73.38,11.65 72.52,5.88 67.83,9.35" fill="#262628" stroke="#262628" stroke-width="3" stroke-linejoin="round"/>
<polygon points="81.05,16.42 81.33,10.60 76.06,13.09" fill="#262628" stroke="#262628" stroke-width="3" stroke-linejoin="round"/>
<polygon points="87.65,22.59 89.06,16.94 83.41,18.35" fill="#262628" stroke="#262628" stroke-width="3" stroke-linejoin="round"/>
<polygon points="92.91,29.94 95.40,24.67 89.58,24.95" fill="#262628" stroke="#262628" stroke-width="3" stroke-linejoin="round"/>
<polygon points="96.65,38.17 100.12,33.48 94.35,32.62" fill="#262628" stroke="#262628" stroke-width="3" stroke-linejoin="round"/>
<polygon points="98.70,46.97 103.02,43.05 97.53,41.08" fill="#262628" stroke="#262628" stroke-width="3" stroke-linejoin="round"/></g>
  <g><circle cx="53.00" cy="10.00" r="4" fill="#EBEBEA"/>
<circle cx="93.90" cy="39.71" r="4" fill="#EBEBEA"/>
<circle cx="78.27" cy="87.79" r="4" fill="#EBEBEA"/>
<circle cx="27.73" cy="87.79" r="4" fill="#EBEBEA"/>
<circle cx="12.10" cy="39.71" r="4" fill="#EBEBEA"/></g>
  <g transform="translate(53, 53)">
    <circle cx="0" cy="-34" r="2.4" fill="#262628"/>
    <rect x="-0.9" y="-32" width="1.8" height="3" fill="#262628"/>
    <path d="M -27,21.5 C -27.3,3.5 -20,-8 -12.5,-14 C -8,-17.5 -4,-19.5 0,-20.5 C 4,-19.5 8,-17.5 12.5,-14 C 20,-8 27.3,3.5 27,21.5 Z" fill="#262628"/>
    <rect x="-29" y="21.5" width="58" height="3.8" rx="1.3" fill="#262628"/>
    <circle cx="0" cy="30" r="3.2" fill="#262628"/>
  </g>
</svg>